<svg width="1440" height="691" viewBox="0 0 1440 691" fill="none" xmlns="http://www.w3.org/2000/svg">
<path d="M8.45598 49.2201C2.08767 49.2201 0.163904 47.5387 -0.00193787 46.6981V827H1439.83V48.7159C1437.68 49.7247 1432.47 51.137 1428.89 48.7159C1424.41 45.6896 1411.97 39.6368 1409.98 39.6368C1407.99 39.6368 1402.99 28.0339 1397.02 31.5646C1391.05 35.0954 1383.57 24.5075 1381.09 24.5075C1381.09 24.5075 1373.61 20.9812 1369.14 17.4504C1365.55 14.6258 1346.68 6.85789 1351.21 14.9301C1339.71 14.9301 1343.81 22.4935 1333.79 18.9627C1323.77 15.4319 1321.34 27.0279 1321.34 27.0279C1316.79 31.552 1317.85 34.591 1315.37 31.5646C1312.88 28.5383 1317.36 35.0932 1315.37 35.0932C1313.38 35.0932 1304.41 36.106 1297.94 39.6368C1291.47 43.1676 1294.06 48.7159 1291.07 48.7159C1288.09 48.7159 1285.1 44.1764 1281.62 42.1588C1278.14 40.1412 1273.66 39.1324 1270.18 39.6368C1266.7 40.1412 1260.23 46.6983 1255.25 48.7159C1251.27 50.33 1242.65 51.4061 1238.83 51.7423L1125.9 56.2819L790.067 43.1676L497.025 52.7511H193.038C185.906 49.0521 171.146 41.1497 169.156 39.1322C166.669 36.6103 162.689 41.6541 160.698 43.6717C158.708 45.6893 152.343 43.6717 148.861 43.6717C145.378 43.6717 143.88 41.1498 141.393 39.1322C138.905 37.1146 138.403 32.0672 135.418 34.5891C132.433 37.111 132.361 35.0948 127.452 32.5728C122.544 30.0508 116.441 27.8531 113.512 26.0198C104.082 20.1168 92.2083 21.0859 92.5376 17.9545C95.0827 -6.24763 70.6944 20.9789 69.2018 20.9789C67.7092 20.9789 61.6911 28.5401 54.2282 28.5401C46.7654 28.5401 44.2777 46.6981 40.7951 43.6717C37.3124 40.6453 31.3421 40.6453 26.8644 41.6541C22.3867 42.6629 16.4164 49.2201 8.45598 49.2201Z" fill="#0F0F0F"/>
<path d="M330.387 52.2361C316.815 52.3933 303.446 48.9631 291.637 42.3011C286.236 39.0032 281.038 35.3867 276.065 31.4762C273.753 29.6969 271.37 27.9176 268.613 26.2127C263.254 21.7563 256.488 19.3108 249.503 19.3108C242.513 19.3108 235.752 21.7522 230.388 26.2086C228.005 27.9134 225.768 29.6927 223.456 31.472C219.73 34.3644 216.005 37.2567 211.904 39.9257C199.006 47.9325 184.116 52.1816 168.913 52.1816C153.71 52.1816 138.816 47.9362 125.917 39.9298C121.892 37.2609 118.466 34.443 114.515 31.5506C112.058 29.6224 109.521 27.6942 107.064 25.8404C101.833 21.7936 95.4002 19.5964 88.7716 19.5964C82.1476 19.5964 75.7104 21.7936 70.4795 25.8404C67.6477 27.7686 65.0406 29.8458 62.3586 31.9189C59.6766 33.9961 54.9072 37.6292 50.9569 40.2982C30.5358 52.6495 5.72042 55.5213 -17 48.1601L-11.1121 29.9954C6.32739 35.627 25.3595 33.4339 41.0436 23.9872C44.6197 21.6865 47.8256 19.0921 51.1022 16.5721C54.3788 14.0521 56.9901 11.975 60.1171 9.82324C68.5955 3.55848 78.8829 0.173709 89.4447 0.173709C100.002 0.173709 110.285 3.55848 118.764 9.82324C121.596 11.8259 124.352 13.9777 127.034 16.0507C129.716 18.1279 133.592 21.1651 137.168 23.4658C146.935 29.4202 158.167 32.5691 169.618 32.5691C181.074 32.5691 192.304 29.4202 202.072 23.4658C205.723 21.0947 209.003 18.4962 212.28 16.0507C215.557 13.6052 217.199 12.1943 219.731 10.3405C228.389 3.63305 239.05 0 250.019 0C260.993 0 271.65 3.63718 280.311 10.3446C282.918 12.1984 285.38 14.1266 287.763 15.9804C292.137 19.4604 296.715 22.6754 301.472 25.6175C317.556 34.3691 336.792 35.2753 353.632 28.063C361.088 24.2686 368.153 19.7458 374.719 14.5697L380.382 10.4153C389.093 3.73262 399.784 0.103689 410.786 0.103689C421.784 0.103689 432.475 3.73262 441.187 10.4153L448.638 15.8276C452.738 19.0179 456.684 21.9806 460.934 24.724C469.832 30.2605 480.265 32.8591 490.739 32.1432L491.409 51.1977C477.043 51.9757 462.797 48.2682 450.651 40.5963C445.732 37.4061 441.262 33.9964 437.016 30.7358L430.234 25.6214C424.77 21.3512 418.025 19.0256 411.082 19.0256C404.138 19.0256 397.393 21.347 391.934 25.6173L386.42 29.6227C378.86 35.5564 370.723 40.7241 362.128 45.0449C352.207 49.7414 341.368 52.1988 330.387 52.2361Z" fill="#0F0F0F"/>
<path d="M804.599 52.2361C791.027 52.3933 777.658 48.9631 765.85 42.3011C760.448 39.0032 755.251 35.3867 750.277 31.4762C747.965 29.6969 745.583 27.9176 742.826 26.2127C737.466 21.7563 730.7 19.3108 723.715 19.3108C716.725 19.3108 709.964 21.7522 704.6 26.2086C702.218 27.9134 699.981 29.6927 697.669 31.472C693.943 34.3644 690.217 37.2567 686.117 39.9257C673.218 47.9325 658.328 52.1816 643.125 52.1816C627.922 52.1816 613.029 47.9362 600.13 39.9298C596.104 37.2609 592.678 34.443 588.728 31.5506C586.27 29.6224 583.734 27.6942 581.276 25.8404C576.045 21.7936 569.613 19.5964 562.984 19.5964C556.36 19.5964 549.923 21.7936 544.692 25.8404C541.86 27.7686 539.253 29.8458 536.571 31.9189C533.889 33.9961 529.12 37.6292 525.169 40.2982C504.748 52.6495 480.158 57.0845 457.212 41.862L461.037 25.8404C480.158 34.2507 499.572 33.4339 515.256 23.9872C518.832 21.6865 522.038 19.0921 525.315 16.5721C528.591 14.0521 531.203 11.975 534.33 9.82324C542.808 3.55848 553.095 0.173709 563.657 0.173709C574.215 0.173709 584.498 3.55848 592.976 9.82324C595.808 11.8259 598.565 13.9777 601.247 16.0507C603.929 18.1279 607.804 21.1651 611.38 23.4658C621.148 29.4202 632.379 32.5691 643.83 32.5691C655.286 32.5691 666.516 29.4202 676.284 23.4658C679.935 21.0947 683.216 18.4962 686.492 16.0507C689.769 13.6052 691.411 12.1943 693.944 10.3405C702.601 3.63305 713.262 0 724.232 0C735.206 0 745.862 3.63718 754.524 10.3446C757.131 12.1984 759.593 14.1266 761.975 15.9804C766.35 19.4604 770.928 22.6754 775.685 25.6175C791.768 34.3691 811.004 35.2753 827.845 28.063C835.3 24.2686 842.365 19.7458 848.931 14.5697L854.594 10.4153C863.306 3.73262 873.997 0.103689 884.998 0.103689C895.997 0.103689 906.687 3.73262 915.399 10.4153L922.851 15.8276C926.951 19.0179 930.897 21.9806 935.146 24.724C944.045 30.2605 954.477 32.8591 964.952 32.1432L965.621 51.1977C951.255 51.9757 937.009 48.2682 924.863 40.5963C919.944 37.4061 915.474 33.9964 911.228 30.7358L904.446 25.6214C898.983 21.3512 892.238 19.0256 885.294 19.0256C878.35 19.0256 871.606 21.347 866.146 25.6173L860.632 29.6227C853.073 35.5564 844.935 40.7241 836.341 45.0449C826.419 49.7414 815.581 52.1988 804.599 52.2361Z" fill="#0F0F0F"/>
<path d="M1278.81 52.2361C1265.24 52.3933 1251.87 48.9631 1240.06 42.3011C1234.66 39.0032 1229.46 35.3867 1224.49 31.4762C1222.18 29.6969 1219.8 27.9176 1217.04 26.2127C1211.68 21.7563 1204.91 19.3108 1197.93 19.3108C1190.94 19.3108 1184.18 21.7522 1178.81 26.2086C1176.43 27.9134 1174.19 29.6927 1171.88 31.472C1168.16 34.3644 1164.43 37.2567 1160.33 39.9257C1147.43 47.9325 1132.54 52.1816 1117.34 52.1816C1102.13 52.1816 1087.24 47.9362 1074.34 39.9298C1070.32 37.2609 1066.89 34.443 1062.94 31.5506C1060.48 29.6224 1057.95 27.6942 1055.49 25.8404C1050.26 21.7936 1043.83 19.5964 1037.2 19.5964C1030.57 19.5964 1024.14 21.7936 1018.9 25.8404C1016.07 27.7686 1013.47 29.8458 1010.78 31.9189C1008.1 33.9961 1003.33 37.6292 999.382 40.2982C978.961 52.6495 954.371 57.0845 931.425 41.862L935.249 25.8404C954.371 34.2507 973.785 33.4339 989.469 23.9872C993.045 21.6865 996.251 19.0921 999.527 16.5721C1002.8 14.0521 1005.41 11.975 1008.54 9.82324C1017.02 3.55848 1027.31 0.173709 1037.87 0.173709C1048.43 0.173709 1058.71 3.55848 1067.19 9.82324C1070.02 11.8259 1072.78 13.9777 1075.46 16.0507C1078.14 18.1279 1082.02 21.1651 1085.59 23.4658C1095.36 29.4202 1106.59 32.5691 1118.04 32.5691C1129.5 32.5691 1140.73 29.4202 1150.5 23.4658C1154.15 21.0947 1157.43 18.4962 1160.7 16.0507C1163.98 13.6052 1165.62 12.1943 1168.16 10.3405C1176.81 3.63305 1187.47 0 1198.44 0C1209.42 0 1220.07 3.63718 1228.74 10.3446C1231.34 12.1984 1233.81 14.1266 1236.19 15.9804C1240.56 19.4604 1245.14 22.6754 1249.9 25.6175C1265.98 34.3691 1285.22 35.2753 1302.06 28.063C1309.51 24.2686 1316.58 19.7458 1323.14 14.5697L1328.81 10.4153C1337.52 3.73262 1348.21 0.103689 1359.21 0.103689C1370.21 0.103689 1380.9 3.73262 1389.61 10.4153L1397.06 15.8276C1401.16 19.0179 1405.11 21.9806 1409.36 24.724C1418.26 30.2605 1428.69 32.8591 1439.16 32.1432C1449.64 31.4273 1439.83 51.1977 1439.83 51.1977C1425.47 51.9757 1411.22 48.2682 1399.08 40.5963C1394.16 37.4061 1389.69 33.9964 1385.44 30.7358L1378.66 25.6214C1373.2 21.3512 1366.45 19.0256 1359.51 19.0256C1352.56 19.0256 1345.82 21.347 1340.36 25.6173L1334.84 29.6227C1327.29 35.5564 1319.15 40.7241 1310.55 45.0449C1300.63 49.7414 1289.79 52.1988 1278.81 52.2361Z" fill="#0F0F0F"/>
</svg>
