<svg id="visual" viewBox="0 0 960 200" width="960" height="200" xmlns="http://www.w3.org/2000/svg" xmlns:xlink="http://www.w3.org/1999/xlink" version="1.1"><path d="M0 137L11.5 134.8C23 132.7 46 128.3 68.8 130.3C91.7 132.3 114.3 140.7 137.2 144.2C160 147.7 183 146.3 205.8 141.7C228.7 137 251.3 129 274.2 128.3C297 127.7 320 134.3 342.8 140.7C365.7 147 388.3 153 411.2 152.7C434 152.3 457 145.7 480 140.5C503 135.3 526 131.7 548.8 135.3C571.7 139 594.3 150 617.2 153C640 156 663 151 685.8 144.2C708.7 137.3 731.3 128.7 754.2 126C777 123.3 800 126.7 822.8 131.5C845.7 136.3 868.3 142.7 891.2 147.2C914 151.7 937 154.3 948.5 155.7L960 157L960 201L948.5 201C937 201 914 201 891.2 201C868.3 201 845.7 201 822.8 201C800 201 777 201 754.2 201C731.3 201 708.7 201 685.8 201C663 201 640 201 617.2 201C594.3 201 571.7 201 548.8 201C526 201 503 201 480 201C457 201 434 201 411.2 201C388.3 201 365.7 201 342.8 201C320 201 297 201 274.2 201C251.3 201 228.7 201 205.8 201C183 201 160 201 137.2 201C114.3 201 91.7 201 68.8 201C46 201 23 201 11.5 201L0 201Z" fill="#0F0F0F" stroke-linecap="round" stroke-linejoin="miter"></path></svg>